<svg viewBox="0 0 983 980" fill="none" xmlns="http://www.w3.org/2000/svg">
<path fill-rule="evenodd" clip-rule="evenodd" d="M723.17 732.672C671.409 781.861 635.598 854.436 566.444 872.264C496.961 890.178 421.254 864.523 360.592 826.15C305.926 791.569 286.899 724.631 249.561 671.81C214.186 621.766 162.881 582.965 146.876 523.815C129.214 458.54 119.751 382.473 155.798 325.288C191.547 268.574 266.596 254.944 330.034 233.245C383.454 214.972 437.936 213.11 494.287 209.506C558.903 205.374 630.397 175.122 684.6 210.568C738.789 246.006 731.52 327.281 761.852 384.483C797.563 451.829 886.734 500.148 878.32 575.891C870.032 650.489 777.569 680.977 723.17 732.672Z" fill="#07004D" fill-opacity="0.28"/>
<path fill-rule="evenodd" clip-rule="evenodd" d="M838.473 428.107C832.625 500.115 743.643 533.375 714.436 599.478C684.368 667.528 719.972 758.342 668.715 812.307C613.937 869.978 525.771 887.387 446.412 881.661C364.91 875.781 279.164 845.619 229.744 780.633C182.743 718.828 192.392 633.008 198.459 555.61C203.163 495.595 244.514 448.699 260.317 390.602C281.045 314.399 237.652 205.199 305.018 163.863C371.479 123.083 446.432 218.502 523.7 228.99C598.634 239.161 681.087 183.168 744.967 223.577C809.945 264.68 844.694 351.513 838.473 428.107Z" fill="#07004D" fill-opacity="0.28"/>
<path fill-rule="evenodd" clip-rule="evenodd" d="M802.831 644.476C774.381 712.717 760.251 801.321 692.281 830.486C624.288 859.662 553.781 796.31 481.066 782.545C430.364 772.947 377.391 785.63 331.427 762.176C281.553 736.727 244.542 694.412 215.076 646.819C179.182 588.844 134.069 527.566 144.464 460.2C155.196 390.654 218.897 345.543 269.167 296.285C326.029 240.567 375.474 158.259 455.082 155.832C534.67 153.405 580.893 243.84 649.24 284.695C722.856 328.699 836.456 325.073 870.118 403.923C903.637 482.44 835.675 565.696 802.831 644.476Z" fill="#07004D" fill-opacity="0.28"/>
</svg>
