<svg width="297" height="163" viewBox="0 0 297 163" fill="none" xmlns="http://www.w3.org/2000/svg">
    <path d="M0.4 121V51H11.1L41.7 102.1H36.1L66.2 51H76.9L77 121H64.7L64.6 70.3H67.2L41.6 113H35.8L9.8 70.3H12.8V121H0.4ZM99.1078 141.1C96.5078 141.1 93.9078 140.667 91.3078 139.8C88.7078 138.933 86.5411 137.733 84.8078 136.2L89.8078 127C91.0745 128.133 92.5078 129.033 94.1078 129.7C95.7078 130.367 97.3411 130.7 99.0078 130.7C101.274 130.7 103.108 130.133 104.508 129C105.908 127.867 107.208 125.967 108.408 123.3L111.508 116.3L112.508 114.8L132.708 67.6H144.708L119.708 125.3C118.041 129.3 116.174 132.467 114.108 134.8C112.108 137.133 109.841 138.767 107.308 139.7C104.841 140.633 102.108 141.1 99.1078 141.1ZM110.108 122.9L86.0078 67.6H99.0078L118.608 113.7L110.108 122.9Z" fill="#0F0B33"/>
    <rect x="152" y="12" width="70" height="70" rx="20" fill="#0F0B33"/>
    <path d="M176.7 65V30H183.2V59.5H201.5V65H176.7Z" fill="white"/>
    <rect x="227" y="12" width="70" height="70" rx="20" fill="#0F0B33"/>
    <path d="M268.55 62V56.6L268.2 55.45V46C268.2 44.1667 267.65 42.75 266.55 41.75C265.45 40.7167 263.783 40.2 261.55 40.2C260.05 40.2 258.567 40.4333 257.1 40.9C255.667 41.3667 254.45 42.0167 253.45 42.85L251 38.3C252.433 37.2 254.133 36.3833 256.1 35.85C258.1 35.2833 260.167 35 262.3 35C266.167 35 269.15 35.9333 271.25 37.8C273.383 39.6333 274.45 42.4833 274.45 46.35V62H268.55ZM260.15 62.35C258.15 62.35 256.4 62.0167 254.9 61.35C253.4 60.65 252.233 59.7 251.4 58.5C250.6 57.2667 250.2 55.8833 250.2 54.35C250.2 52.85 250.55 51.5 251.25 50.3C251.983 49.1 253.167 48.15 254.8 47.45C256.433 46.75 258.6 46.4 261.3 46.4H269.05V50.55H261.75C259.617 50.55 258.183 50.9 257.45 51.6C256.717 52.2667 256.35 53.1 256.35 54.1C256.35 55.2333 256.8 56.1333 257.7 56.8C258.6 57.4667 259.85 57.8 261.45 57.8C262.983 57.8 264.35 57.45 265.55 56.75C266.783 56.05 267.667 55.0167 268.2 53.65L269.25 57.4C268.65 58.9667 267.567 60.1833 266 61.05C264.467 61.9167 262.517 62.35 260.15 62.35Z" fill="white"/>
    <rect x="227" y="87" width="70" height="70" rx="20" fill="#2BA84A"/>
    <path d="M261.35 136.35C259.117 136.35 256.967 136.067 254.9 135.5C252.867 134.9 251.25 134.183 250.05 133.35L252.45 128.6C253.65 129.367 255.083 130 256.75 130.5C258.417 131 260.083 131.25 261.75 131.25C263.717 131.25 265.133 130.983 266 130.45C266.9 129.917 267.35 129.2 267.35 128.3C267.35 127.567 267.05 127.017 266.45 126.65C265.85 126.25 265.067 125.95 264.1 125.75C263.133 125.55 262.05 125.367 260.85 125.2C259.683 125.033 258.5 124.817 257.3 124.55C256.133 124.25 255.067 123.833 254.1 123.3C253.133 122.733 252.35 121.983 251.75 121.05C251.15 120.117 250.85 118.883 250.85 117.35C250.85 115.65 251.333 114.183 252.3 112.95C253.267 111.683 254.617 110.717 256.35 110.05C258.117 109.35 260.2 109 262.6 109C264.4 109 266.217 109.2 268.05 109.6C269.883 110 271.4 110.567 272.6 111.3L270.2 116.05C268.933 115.283 267.65 114.767 266.35 114.5C265.083 114.2 263.817 114.05 262.55 114.05C260.65 114.05 259.233 114.333 258.3 114.9C257.4 115.467 256.95 116.183 256.95 117.05C256.95 117.85 257.25 118.45 257.85 118.85C258.45 119.25 259.233 119.567 260.2 119.8C261.167 120.033 262.233 120.233 263.4 120.4C264.6 120.533 265.783 120.75 266.95 121.05C268.117 121.35 269.183 121.767 270.15 122.3C271.15 122.8 271.95 123.517 272.55 124.45C273.15 125.383 273.45 126.6 273.45 128.1C273.45 129.767 272.95 131.217 271.95 132.45C270.983 133.683 269.6 134.65 267.8 135.35C266 136.017 263.85 136.35 261.35 136.35Z" fill="white"/>
    <rect x="152" y="87" width="70" height="70" rx="20" fill="#0F0B33"/>
    <path d="M190.9 140.35C188.633 140.35 186.617 139.85 184.85 138.85C183.083 137.85 181.683 136.35 180.65 134.35C179.65 132.317 179.15 129.75 179.15 126.65C179.15 123.517 179.667 120.95 180.7 118.95C181.767 116.95 183.183 115.467 184.95 114.5C186.75 113.5 188.733 113 190.9 113C193.533 113 195.85 113.567 197.85 114.7C199.883 115.833 201.483 117.417 202.65 119.45C203.85 121.483 204.45 123.883 204.45 126.65C204.45 129.417 203.85 131.817 202.65 133.85C201.483 135.883 199.883 137.483 197.85 138.65C195.85 139.783 193.533 140.35 190.9 140.35ZM176.1 140V102.9H182.35V119.5L181.85 126.6L182.05 133.7V140H176.1ZM190.2 135C191.7 135 193.033 134.667 194.2 134C195.4 133.333 196.35 132.367 197.05 131.1C197.75 129.833 198.1 128.35 198.1 126.65C198.1 124.917 197.75 123.433 197.05 122.2C196.35 120.933 195.4 119.967 194.2 119.3C193.033 118.633 191.7 118.3 190.2 118.3C188.7 118.3 187.35 118.633 186.15 119.3C184.95 119.967 184 120.933 183.3 122.2C182.6 123.433 182.25 124.917 182.25 126.65C182.25 128.35 182.6 129.833 183.3 131.1C184 132.367 184.95 133.333 186.15 134C187.35 134.667 188.7 135 190.2 135Z" fill="white"/>
    </svg>
    